# xmcd CD database file
#
# Track frame offsets:
#        150
#        2786
#        14879
#        24188
#        35859
#        45828
#        59713
#        68419
#        79150
#        91083
#        104221
#        116082
#        128718
#        145224
#        156728
#        169187
#        179188
#        189567
#        198839
#        209664
#        221341
#        232936
#        243223
#        251976
#        262940
#
# Disc length: 3528 seconds
#
# Revision: 0
# Processed by: cddbd v1.5.2PL0 Copyright (c) Steve Scherf et al.
# Submitted via: CUERipper 2.1.5
#
DISCID=700dc619
DTITLE=Various Artist - Gunsmoke Volume 1 and 2: Dark Tales Of Western Noir From A Ghost Town Jukebox
DYEAR=2017
DGENRE=Rockabilly
TTITLE0=Intro - Intro
TTITLE1=Ray Stevens - Laughing All Over My Grave
TTITLE2=Bobby Wall - Baby It's Too Much
TTITLE3=Dave Gardner - Mad Witch
TTITLE4=The Gatemen - The Klan
TTITLE5=Selwyn Cox - His Name Is Jesus
TTITLE6=Jimmy Minor - Satan's Chauffer
TTITLE7=Ken and Carol Craig With The Lawrence Bros. Combo - Silver Coin
TTITLE8=Marvin Rainwater - The Pale Faced Indian
TTITLE9=Hayden Thompson - Watcha Gonna Do
TTITLE10=Kip Tyler - Eternity
TTITLE11=Juan Montego and His Habana Sound - Come Back Juanita
TTITLE12=Billy Fury - Don't Jump
TTITLE13=Steve Arlen - They Took John Away
TTITLE14=Jerry Irby - The Night I Whipped The Devil
TTITLE15=Johnny Devlin - Cast Iron Arm
TTITLE16=Magnificent Seven - Baby Doll
TTITLE17=El Clod - Gringo (Ringo)
TTITLE18=Warren Smith - The Hanging Day
TTITLE19=Steve King And The Echelons - Satan Is Her Name
TTITLE20=Danny Welch - Riding Shotgun (In A Hot Rod Car)
TTITLE21=Ric Cartey - Born To Love One Woman
TTITLE22=Johnny Bond - All I Can Do Is Cry
TTITLE23=Sons Of The Pioneers - Buffalo
TTITLE24=Outro - Gunsmoke Outro
EXTD=
EXTT0=
EXTT1=
EXTT2=
EXTT3=
EXTT4=
EXTT5=
EXTT6=
EXTT7=
EXTT8=
EXTT9=
EXTT10=
EXTT11=
EXTT12=
EXTT13=
EXTT14=
EXTT15=
EXTT16=
EXTT17=
EXTT18=
EXTT19=
EXTT20=
EXTT21=
EXTT22=
EXTT23=
EXTT24=
PLAYORDER=
